<?xml version="1.0" standalone="no"?>
<!DOCTYPE svg PUBLIC "-//W3C//DTD SVG 20010904//EN"
 "http://www.w3.org/TR/2001/REC-SVG-20010904/DTD/svg10.dtd">
<svg version="1.0" xmlns="http://www.w3.org/2000/svg"
 width="1040.000000pt" height="1040.000000pt" viewBox="0 0 1040.000000 1040.000000"
 preserveAspectRatio="xMidYMid meet">
<metadata>
Created by potrace 1.14, written by Peter Selinger 2001-2017
</metadata>
<g transform="translate(0.000000,1040.000000) scale(0.100000,-0.100000)"
fill="#000000" stroke="none">
<path d="M4892 10129 c-9 -4 -20 -5 -24 -2 -4 2 -17 -1 -29 -8 -15 -7 -19 -8
-15 0 5 8 0 8 -18 1 -17 -6 -26 -6 -26 1 0 6 -6 6 -19 -1 -14 -7 -21 -6 -24 3
-4 9 -6 9 -6 -1 -1 -7 -5 -10 -11 -7 -5 3 -10 2 -10 -2 0 -5 -15 -7 -34 -5
-18 2 -42 -1 -53 -6 -12 -7 -25 -7 -36 -1 -12 7 -17 6 -17 -1 0 -6 -4 -9 -9
-5 -5 3 -12 2 -14 -2 -3 -5 -24 -8 -46 -7 -23 0 -41 -4 -41 -9 0 -5 -7 -4 -15
3 -12 10 -15 10 -15 0 0 -7 -6 -10 -14 -7 -8 3 -17 1 -20 -6 -3 -8 -5 -8 -5 2
-1 11 -4 11 -16 1 -8 -7 -15 -9 -15 -5 0 4 -7 2 -15 -5 -12 -10 -15 -10 -15 1
0 9 -3 10 -8 4 -4 -6 -14 -10 -22 -10 -8 0 -18 -4 -22 -10 -5 -6 -8 -5 -8 3 0
10 -4 9 -16 -3 -11 -10 -19 -13 -23 -6 -4 6 -12 6 -20 1 -8 -4 -21 -6 -29 -2
-9 3 -13 1 -9 -5 4 -6 -6 -9 -23 -8 -17 1 -27 -2 -23 -8 4 -6 0 -8 -9 -4 -9 3
-27 -1 -42 -8 -16 -9 -26 -10 -26 -3 0 7 -5 7 -14 -1 -7 -6 -20 -9 -28 -6 -9
4 -18 -1 -22 -12 -6 -15 -8 -15 -17 -3 -7 11 -11 12 -17 3 -4 -6 -19 -14 -32
-16 -14 -2 -32 -6 -40 -10 -24 -9 -74 -20 -82 -19 -5 1 -8 -2 -8 -7 0 -6 -9
-8 -20 -6 -11 2 -20 -1 -20 -7 0 -5 -7 -8 -15 -4 -8 3 -15 1 -15 -3 0 -5 -18
-12 -40 -16 -22 -4 -43 -11 -46 -17 -4 -6 -10 -5 -15 3 -6 10 -9 11 -9 2 0 -7
-7 -13 -15 -13 -8 0 -15 -4 -15 -10 0 -5 -7 -7 -15 -4 -8 4 -15 1 -15 -6 0 -6
-4 -9 -9 -5 -5 3 -12 1 -16 -4 -3 -6 -12 -8 -20 -4 -8 3 -15 -1 -15 -8 0 -7
-3 -9 -7 -6 -3 4 -16 1 -27 -6 -12 -8 -29 -13 -39 -11 -10 1 -21 -4 -23 -11
-3 -8 -12 -11 -20 -8 -8 3 -14 1 -14 -4 0 -5 -10 -9 -22 -10 -11 -1 -24 -7
-28 -14 -5 -6 -13 -8 -20 -4 -9 6 -11 4 -5 -5 6 -10 4 -12 -8 -7 -8 3 -21 -1
-27 -8 -7 -8 -16 -12 -21 -9 -5 3 -9 0 -9 -5 0 -6 -3 -10 -7 -9 -5 1 -21 -4
-36 -10 -16 -7 -33 -12 -38 -12 -5 0 -9 -5 -9 -11 0 -5 -4 -7 -10 -4 -5 3 -10
1 -10 -6 0 -7 -3 -9 -7 -6 -3 4 -12 2 -20 -4 -7 -6 -13 -8 -13 -5 0 4 -7 0
-16 -8 -8 -9 -20 -14 -25 -11 -5 4 -9 1 -9 -5 0 -6 -4 -8 -10 -5 -5 3 -10 1
-10 -4 0 -6 -8 -11 -18 -11 -10 0 -28 -9 -40 -20 -12 -11 -28 -20 -37 -20 -8
0 -15 -4 -15 -9 0 -8 -37 -24 -52 -22 -5 1 -8 -3 -8 -8 0 -5 -20 -17 -45 -28
-25 -10 -45 -21 -45 -25 0 -5 -7 -8 -15 -8 -8 0 -15 -5 -15 -11 0 -5 -4 -7
-10 -4 -5 3 -10 2 -10 -4 0 -6 -11 -13 -25 -17 -14 -3 -22 -10 -19 -15 3 -5
-4 -9 -15 -9 -12 0 -21 -4 -21 -10 0 -5 -7 -10 -15 -10 -8 0 -15 -4 -15 -10 0
-5 -6 -10 -13 -10 -7 0 -23 -9 -34 -19 -12 -11 -23 -17 -27 -14 -3 3 -8 -2
-12 -11 -3 -9 -10 -16 -16 -16 -12 0 -100 -60 -110 -74 -4 -6 -8 -8 -8 -3 0 4
-10 -2 -22 -13 -49 -43 -58 -50 -69 -50 -15 0 -39 -26 -31 -34 3 -4 -2 -4 -12
0 -13 5 -17 4 -12 -4 4 -7 -3 -14 -19 -18 -14 -3 -24 -9 -21 -11 6 -7 -19 -33
-31 -33 -5 0 -24 -14 -41 -31 -18 -17 -32 -29 -32 -25 0 3 -16 -11 -36 -32
-20 -20 -31 -28 -23 -17 7 11 -17 -10 -54 -46 -37 -37 -67 -64 -67 -60 0 3
-15 -11 -34 -31 -19 -20 -36 -34 -39 -32 -3 3 -8 -4 -12 -15 -3 -12 -14 -21
-22 -21 -9 0 -13 -3 -10 -7 4 -3 -8 -17 -25 -30 -18 -12 -29 -23 -24 -23 4 0
-4 -10 -17 -22 -14 -13 -36 -33 -48 -45 -53 -48 -109 -111 -109 -122 0 -6 -7
-11 -15 -11 -8 0 -14 -3 -13 -7 2 -5 -21 -33 -49 -63 -29 -30 -53 -59 -53 -64
0 -5 -10 -17 -22 -27 -11 -11 -18 -19 -15 -19 4 0 -1 -8 -10 -18 -10 -11 -21
-17 -24 -16 -5 3 -24 -30 -28 -48 0 -5 -15 -21 -31 -36 -16 -16 -27 -32 -23
-35 3 -4 0 -7 -7 -7 -7 0 -10 -3 -7 -7 4 -3 -5 -17 -19 -30 -14 -12 -22 -23
-19 -23 3 0 -6 -11 -20 -24 -15 -14 -25 -27 -23 -29 2 -3 -7 -17 -19 -31 -13
-14 -20 -26 -17 -26 3 0 -4 -12 -15 -26 -12 -15 -21 -34 -21 -43 0 -14 -2 -14
-10 -1 -8 12 -10 11 -10 -7 0 -13 -4 -23 -10 -23 -5 0 -10 -7 -10 -15 0 -8 -5
-15 -12 -15 -6 0 -9 -3 -5 -6 3 -4 -1 -13 -9 -21 -8 -8 -11 -19 -8 -25 4 -7 2
-8 -4 -4 -11 6 -16 -6 -9 -19 1 -2 -8 -12 -21 -21 -13 -9 -21 -22 -18 -29 2
-7 -2 -16 -11 -19 -9 -4 -13 -9 -10 -12 3 -4 -3 -15 -13 -27 -11 -11 -17 -24
-14 -29 3 -4 0 -8 -6 -8 -7 0 -9 -7 -6 -16 3 -8 2 -13 -3 -10 -8 5 -14 -4 -26
-34 -20 -50 -31 -70 -37 -70 -4 0 -8 -7 -8 -15 0 -8 -5 -15 -11 -15 -5 0 -7
-4 -4 -10 3 -5 1 -10 -5 -10 -6 0 -8 -4 -5 -10 3 -5 1 -10 -4 -10 -6 0 -10 -3
-9 -7 1 -5 -3 -18 -10 -30 -7 -13 -9 -23 -5 -23 4 0 4 -4 -2 -8 -18 -13 -42
-47 -27 -38 11 7 11 4 0 -15 -7 -13 -16 -26 -20 -29 -3 -3 -8 -14 -10 -25 -1
-11 -7 -23 -13 -27 -5 -4 -10 -11 -11 -15 -3 -28 -18 -63 -27 -63 -6 0 -7 -3
-4 -7 4 -3 -1 -15 -10 -26 -10 -11 -13 -17 -6 -13 8 4 8 -2 -2 -20 -8 -15 -12
-31 -10 -35 3 -4 -2 -10 -11 -13 -8 -3 -12 -11 -8 -17 3 -6 1 -15 -5 -19 -7
-4 -13 -17 -14 -28 -1 -12 -5 -22 -9 -22 -4 0 -7 -3 -6 -7 3 -16 -25 -103 -33
-103 -5 0 -9 -11 -9 -24 0 -14 -5 -28 -11 -31 -6 -4 -8 -13 -5 -21 3 -8 1 -14
-5 -14 -6 0 -8 -4 -4 -9 3 -5 0 -13 -6 -16 -5 -4 -8 -13 -5 -21 3 -8 1 -14 -5
-14 -6 0 -8 -4 -4 -9 3 -5 1 -12 -4 -16 -6 -3 -8 -12 -4 -20 3 -8 0 -15 -6
-15 -6 0 -11 -5 -11 -11 0 -5 6 -7 12 -3 7 4 5 -2 -6 -14 -10 -12 -16 -28 -13
-36 3 -8 -1 -20 -9 -27 -10 -9 -12 -14 -4 -19 8 -5 6 -12 -5 -24 -9 -9 -14
-23 -11 -31 3 -8 1 -15 -3 -15 -5 0 -8 -8 -6 -17 1 -10 0 -22 -4 -28 -7 -13
-13 -35 -15 -62 0 -13 -5 -23 -10 -23 -5 0 -6 -3 -3 -7 4 -3 1 -13 -6 -21 -10
-13 -9 -14 3 -7 13 8 13 7 1 -8 -7 -9 -10 -17 -5 -17 5 0 2 -5 -6 -10 -10 -7
-11 -10 -2 -10 9 0 9 -7 -3 -30 -12 -23 -12 -30 -3 -30 8 0 9 -3 3 -8 -11 -8
-14 -19 -17 -57 -1 -14 -5 -25 -9 -25 -4 0 -6 -8 -4 -17 1 -10 0 -22 -3 -28
-3 -5 -7 -25 -8 -45 -1 -19 -3 -35 -4 -35 -2 0 -8 -41 -11 -87 -2 -21 -8 -38
-13 -38 -6 0 -4 -5 4 -10 13 -9 13 -10 0 -10 -12 0 -12 -2 -1 -9 9 -6 10 -11
2 -15 -6 -4 -11 -29 -11 -56 0 -29 -5 -50 -12 -53 -10 -4 -10 -6 0 -6 6 -1 12
-6 12 -12 0 -5 -4 -8 -8 -5 -5 3 -9 -1 -9 -9 0 -8 4 -15 9 -15 5 0 4 -9 -2
-20 -8 -15 -8 -20 1 -20 8 0 8 -4 0 -14 -9 -11 -12 -112 -13 -378 0 -200 1
-367 2 -373 1 -5 2 -14 1 -19 -1 -5 4 -13 10 -17 10 -6 10 -11 0 -23 -8 -9 -9
-16 -4 -16 5 0 8 -13 7 -30 -1 -17 3 -30 9 -30 7 0 5 -5 -3 -10 -13 -9 -13
-10 0 -10 13 0 13 -1 0 -10 -13 -9 -13 -10 0 -10 13 0 13 -1 0 -10 -12 -7 -12
-10 -1 -10 7 0 11 -6 8 -14 -3 -7 0 -19 6 -26 9 -10 9 -11 -3 -5 -13 8 -13 7
-1 -8 10 -13 10 -17 1 -17 -10 0 -10 -3 0 -15 7 -8 9 -15 4 -15 -4 0 -3 -5 4
-12 14 -14 16 -32 4 -24 -5 3 -9 -1 -9 -9 0 -8 4 -15 8 -15 3 0 9 -9 12 -20 3
-11 1 -20 -4 -20 -6 0 -5 -9 1 -20 6 -11 8 -24 5 -29 -3 -5 1 -12 7 -14 10 -4
9 -6 -1 -6 -11 -1 -11 -4 0 -17 15 -19 21 -47 8 -38 -5 3 -9 0 -9 -5 0 -6 4
-11 9 -11 5 0 11 -9 14 -20 3 -11 0 -20 -5 -20 -6 0 -6 -6 2 -15 6 -8 9 -19 5
-25 -3 -5 -2 -10 4 -10 6 0 8 -7 5 -15 -4 -9 0 -15 7 -15 12 0 12 -2 0 -9 -9
-6 -10 -11 -2 -15 6 -4 9 -12 6 -17 -4 -5 0 -9 7 -9 10 0 10 -2 -1 -9 -9 -6
-10 -11 -2 -15 6 -4 11 -20 11 -37 0 -16 5 -29 13 -29 8 0 7 -4 -3 -10 -10 -6
-11 -10 -2 -10 6 0 12 -11 12 -25 0 -14 6 -25 13 -25 9 0 9 -2 0 -8 -8 -5 -6
-17 7 -44 10 -20 15 -39 12 -42 -2 -3 0 -12 7 -20 9 -11 9 -15 0 -18 -8 -3 -6
-9 5 -21 10 -9 15 -17 12 -17 -4 0 1 -16 9 -36 18 -44 18 -47 2 -39 -6 4 -5 1
4 -7 9 -7 14 -19 12 -25 -3 -7 0 -13 5 -13 6 0 9 -11 8 -25 -2 -13 1 -22 5
-19 8 5 13 -13 12 -44 -1 -6 3 -12 9 -12 5 0 6 -4 3 -10 -3 -5 0 -10 7 -10 11
0 10 -2 0 -9 -11 -7 -11 -9 2 -14 9 -4 16 -18 16 -32 0 -15 4 -24 9 -21 5 4 7
-3 4 -14 -3 -11 -1 -20 5 -20 9 0 27 -55 23 -72 0 -5 4 -8 10 -8 5 0 7 -4 4
-10 -3 -5 -1 -10 4 -10 6 0 10 -3 9 -7 -1 -5 3 -18 10 -31 7 -12 10 -22 6 -22
-4 0 1 -10 12 -22 10 -12 13 -18 5 -13 -9 5 -8 0 3 -17 9 -14 13 -28 9 -31 -3
-4 -1 -7 6 -7 7 0 9 -4 6 -10 -3 -5 -1 -10 5 -10 6 0 8 -4 5 -10 -3 -5 -1 -10
5 -10 6 0 8 -4 5 -10 -3 -5 -1 -10 5 -10 6 0 8 -4 5 -10 -3 -5 -1 -10 4 -10 6
0 11 -8 11 -18 0 -10 7 -27 15 -38 8 -12 11 -24 8 -28 -3 -3 -1 -6 5 -6 7 0
12 -9 12 -20 0 -11 5 -20 11 -20 5 0 7 -5 4 -10 -3 -6 1 -13 9 -16 9 -3 16
-17 16 -30 0 -13 5 -24 10 -24 6 0 10 -7 10 -15 0 -8 5 -15 11 -15 5 0 7 -4 4
-10 -3 -5 -1 -10 5 -10 6 0 8 -4 5 -10 -3 -5 -1 -10 4 -10 6 0 11 -7 11 -16 0
-9 10 -25 22 -36 13 -11 17 -17 11 -13 -9 4 -11 1 -7 -9 3 -9 10 -13 15 -10 5
3 6 -2 3 -10 -3 -9 -1 -16 6 -16 6 0 9 -4 6 -9 -3 -4 3 -16 14 -26 11 -10 17
-22 14 -26 -3 -5 0 -9 5 -9 6 0 11 -9 11 -20 0 -11 7 -20 15 -20 14 0 20 -12
16 -33 -1 -4 6 -10 14 -13 8 -4 15 -15 15 -26 0 -10 5 -16 10 -13 5 3 10 -1
10 -9 0 -8 7 -19 16 -24 9 -5 16 -13 16 -18 1 -19 12 -40 31 -57 11 -9 16 -17
11 -17 -5 0 0 -7 10 -15 11 -8 16 -15 11 -15 -5 0 0 -7 11 -16 10 -8 12 -13 4
-9 -8 4 -3 -5 12 -18 15 -14 24 -28 21 -31 -4 -3 -1 -6 5 -6 7 0 12 -7 12 -15
0 -8 4 -15 8 -15 4 0 15 -12 24 -28 9 -15 30 -42 47 -59 16 -18 28 -33 25 -33
-4 0 34 -45 64 -76 6 -7 12 -17 12 -22 0 -6 7 -13 16 -16 9 -3 12 -11 8 -18
-4 -7 -4 -10 1 -6 11 10 46 -32 38 -46 -3 -6 -3 -8 1 -4 7 6 91 -77 84 -84 -5
-6 85 -83 93 -81 5 2 6 -3 3 -10 -3 -8 6 -19 21 -25 14 -7 24 -16 21 -20 -2
-4 9 -17 25 -27 16 -11 29 -26 29 -34 0 -8 2 -12 5 -9 7 7 75 -61 75 -75 0 -6
3 -7 7 -4 3 4 13 -2 20 -13 8 -11 19 -18 24 -15 5 4 9 -1 9 -9 0 -9 3 -16 8
-16 4 0 26 -18 50 -40 24 -22 45 -40 48 -40 3 0 17 -14 31 -30 13 -17 30 -30
36 -30 7 0 23 -12 36 -25 12 -14 28 -22 34 -18 6 3 7 1 3 -6 -4 -6 0 -14 10
-18 10 -3 25 -14 34 -22 36 -34 59 -49 64 -44 3 4 6 -1 6 -11 0 -9 4 -15 9
-12 5 3 11 -1 15 -9 3 -8 12 -15 21 -15 8 0 15 -5 15 -11 0 -5 4 -7 10 -4 5 3
10 2 10 -4 0 -5 17 -20 37 -32 21 -13 40 -27 41 -31 2 -5 8 -6 13 -2 5 3 9 1
9 -3 0 -5 22 -22 50 -38 27 -17 50 -34 50 -38 0 -5 4 -6 9 -3 5 3 12 -1 15
-10 3 -8 10 -13 15 -10 5 3 12 -1 15 -10 3 -9 11 -14 18 -12 6 2 20 -4 30 -14
10 -10 25 -18 34 -18 8 0 12 -4 9 -10 -3 -5 3 -10 14 -10 12 0 21 -4 21 -10 0
-5 7 -10 15 -10 8 0 15 -4 15 -10 0 -5 6 -7 14 -4 7 3 16 -2 19 -10 4 -9 13
-16 22 -16 8 0 15 -5 15 -11 0 -5 4 -8 9 -4 5 3 16 -1 24 -9 8 -8 23 -16 33
-18 10 -2 26 -11 35 -21 9 -9 25 -17 37 -17 11 0 23 -7 26 -16 3 -8 10 -12 16
-9 5 3 10 1 10 -4 0 -6 7 -11 15 -11 9 0 27 -7 40 -16 13 -9 29 -13 35 -9 5 3
13 -1 16 -9 3 -9 10 -13 15 -10 5 3 9 0 9 -6 0 -6 4 -8 10 -5 5 3 10 1 10 -4
0 -6 3 -10 8 -9 4 1 17 -3 28 -10 12 -6 24 -8 28 -5 3 3 6 1 6 -6 0 -8 6 -11
16 -7 8 3 13 2 10 -3 -3 -5 1 -12 10 -15 10 -4 13 -2 8 7 -4 6 2 4 13 -6 11
-9 23 -14 26 -10 4 3 7 1 7 -6 0 -7 4 -10 9 -6 5 3 12 1 16 -5 4 -6 11 -8 16
-5 5 4 9 2 9 -3 0 -4 23 -15 50 -22 27 -7 50 -18 50 -23 0 -5 9 -7 20 -4 11 3
18 1 14 -4 -3 -5 1 -9 9 -9 24 0 117 -32 117 -41 0 -4 13 -6 29 -5 17 1 27 -2
24 -8 -4 -5 1 -7 10 -3 10 3 17 2 17 -3 0 -6 8 -10 18 -10 9 0 30 -7 45 -15
15 -8 25 -9 21 -4 -3 6 4 5 17 -2 22 -11 38 -16 77 -21 6 -1 12 -5 12 -8 0 -4
12 -7 27 -7 15 0 29 -6 31 -12 3 -9 7 -9 18 0 11 9 15 8 20 -4 3 -9 13 -13 25
-10 12 3 19 0 19 -8 0 -11 2 -11 10 1 5 8 10 10 10 4 0 -7 7 -15 16 -18 8 -3
12 -2 9 4 -3 6 -1 10 4 10 6 0 11 -5 11 -12 0 -6 3 -8 7 -5 3 4 13 1 21 -6 13
-10 14 -9 7 2 -6 11 -5 12 6 5 8 -5 25 -10 38 -12 14 -2 33 -8 44 -14 15 -8
18 -7 11 4 -4 7 3 4 16 -7 13 -11 20 -14 16 -8 -9 16 -3 16 38 -1 25 -10 37
-11 45 -3 8 8 11 8 11 -1 0 -7 14 -12 33 -12 17 0 39 -4 47 -10 8 -5 17 -5 20
-1 3 5 16 4 30 -2 37 -15 51 -17 44 -5 -4 6 2 5 15 -1 11 -7 21 -8 21 -4 0 4
5 2 12 -5 7 -7 17 -8 29 -2 12 7 20 6 24 0 4 -6 11 -8 16 -5 5 4 9 0 9 -7 0
-9 3 -9 10 2 9 13 10 13 10 0 0 -13 1 -13 10 0 9 13 10 13 10 0 0 -13 1 -13
10 0 5 8 10 10 10 3 0 -6 13 -10 30 -9 17 1 30 -2 30 -7 0 -5 8 -3 17 4 11 10
14 10 9 2 -4 -7 -2 -13 3 -13 6 0 11 5 11 10 0 7 7 7 18 2 9 -5 37 -10 62 -11
25 -2 48 -5 52 -8 5 -2 8 1 8 6 0 6 5 11 11 11 5 0 8 -3 6 -7 -6 -10 587 -8
602 1 6 4 11 4 11 -1 0 -4 5 -1 11 7 8 11 12 12 16 3 3 -9 10 -10 24 -3 10 6
19 7 19 2 0 -5 7 -9 15 -9 8 0 12 4 9 9 -3 4 -1 8 5 8 5 0 12 -6 14 -12 4 -10
6 -10 6 0 1 7 17 12 44 12 24 0 48 5 55 12 9 9 12 9 12 -1 0 -11 3 -11 15 -1
12 10 15 10 15 0 0 -8 4 -9 13 -3 19 15 49 24 42 13 -3 -6 -1 -10 4 -10 6 0
11 5 11 11 0 5 5 7 10 4 6 -3 10 0 10 7 0 8 3 9 8 3 9 -13 44 -16 36 -3 -4 6
2 8 15 3 13 -4 21 -2 21 5 0 7 6 8 19 0 14 -7 23 -6 33 3 7 6 27 12 43 12 17
0 33 5 37 10 5 6 8 5 8 -3 0 -10 4 -10 23 0 12 7 26 11 30 10 4 -1 17 2 27 8
15 8 20 8 20 -2 0 -9 3 -9 10 2 5 8 10 11 10 5 0 -5 5 -3 10 5 8 12 10 12 10
1 0 -10 3 -11 13 -2 8 6 17 8 20 4 4 -3 7 -2 7 3 0 5 10 10 23 10 27 2 49 8
62 15 6 4 18 5 28 4 9 -2 17 1 17 6 0 4 7 6 15 3 8 -3 22 2 32 11 11 11 18 14
21 7 2 -8 12 -6 28 4 13 9 24 13 24 9 0 -4 7 -2 15 5 12 10 15 10 15 -1 0 -11
2 -11 9 -1 4 7 18 14 29 15 12 1 22 4 22 8 0 7 56 22 83 22 9 0 17 4 17 9 0 6
6 8 14 5 8 -3 16 -1 18 4 2 5 13 11 26 12 12 0 22 5 22 10 0 4 5 5 10 2 6 -3
10 -2 10 3 0 5 14 12 30 15 45 9 52 11 88 29 19 10 30 12 25 5 -3 -7 3 -4 14
6 11 9 23 14 26 10 4 -3 7 0 7 7 0 7 3 10 7 7 3 -4 17 0 30 8 13 9 28 13 33
10 6 -3 10 -1 10 5 0 6 5 8 10 5 6 -3 10 -2 10 3 0 5 18 15 40 22 22 7 40 16
40 19 0 4 10 7 22 8 11 1 24 6 27 10 3 4 17 14 30 21 18 11 21 11 15 1 -4 -7
6 -3 23 9 17 12 33 19 37 15 3 -3 6 0 6 7 0 7 3 11 6 7 4 -3 13 1 21 9 8 8 18
12 23 9 5 -3 11 -1 15 5 4 6 11 7 17 4 7 -4 8 -2 4 4 -4 7 3 14 19 18 14 3 25
10 25 16 0 5 5 6 10 3 6 -3 10 -1 10 4 0 6 7 11 15 11 8 0 15 4 15 10 0 5 6 7
14 4 7 -3 16 2 20 11 3 9 10 13 16 10 5 -3 10 -2 10 3 0 4 16 14 35 22 19 8
35 17 35 21 0 4 10 9 23 13 12 3 32 14 44 25 11 11 23 17 27 14 3 -3 8 2 12
11 3 9 10 14 14 11 4 -3 13 2 20 10 7 8 16 12 21 9 5 -3 9 2 9 11 0 9 4 14 9
10 6 -3 20 5 32 17 12 13 19 16 15 8 -4 -8 0 -6 9 5 9 11 20 20 25 20 4 0 20
10 34 22 14 13 26 20 26 15 1 -4 10 4 20 17 11 13 20 20 20 15 0 -4 7 1 16 12
8 10 12 12 8 4 -5 -8 9 1 29 20 21 19 40 34 43 32 3 -2 16 8 29 22 12 13 26
22 29 19 3 -4 6 -1 6 5 0 6 9 14 20 17 11 4 18 11 15 16 -4 5 1 9 9 9 8 0 24
11 35 26 11 14 23 24 26 23 4 -1 25 15 46 35 21 19 39 32 39 28 0 -4 5 1 11
11 6 9 14 15 20 12 5 -4 9 -1 9 4 0 12 40 55 40 43 1 -4 7 4 15 18 8 14 14 21
15 16 0 -5 20 12 45 37 25 26 45 44 45 40 0 -4 11 7 23 25 13 17 27 29 30 25
4 -3 7 1 7 10 0 8 9 19 20 22 11 4 18 10 15 15 -3 5 4 11 15 15 11 4 18 11 15
16 -4 5 1 9 9 9 8 0 18 5 22 12 5 7 3 8 -7 3 -8 -5 -1 4 14 18 15 15 33 27 38
27 6 0 8 4 5 9 -3 5 1 11 9 15 8 3 15 13 15 21 0 9 4 14 9 10 5 -3 12 4 16 14
3 11 15 23 26 26 10 4 17 11 14 16 -4 5 1 9 10 9 9 0 14 4 10 10 -3 5 6 17 20
26 14 9 25 23 25 30 0 8 5 14 11 14 5 0 7 4 4 10 -3 6 1 10 9 10 9 0 15 3 14
8 -2 4 9 21 24 37 16 16 28 34 28 38 0 13 27 37 34 30 3 -4 6 1 6 9 0 8 15 31
34 51 18 20 32 38 29 40 -2 3 10 20 26 38 17 18 31 39 31 46 0 7 4 13 10 13 5
0 12 11 16 25 3 14 10 23 14 20 7 -4 21 17 24 35 1 3 11 16 24 30 12 13 22 30
22 37 0 7 5 13 12 13 6 0 9 3 5 6 -3 3 3 14 14 25 11 11 17 24 14 29 -4 6 -2
10 3 10 5 0 19 20 32 45 13 25 28 45 33 45 6 0 8 3 4 6 -3 3 3 15 13 27 11 11
17 24 14 29 -3 4 0 8 6 8 6 0 8 4 5 10 -3 5 -1 10 5 10 6 0 8 4 5 10 -3 5 -1
10 4 10 6 0 11 7 11 15 0 8 5 15 11 15 5 0 7 5 4 10 -3 6 -1 10 4 10 6 0 11 7
11 14 0 8 14 35 30 59 17 25 30 52 30 61 0 9 5 16 11 16 5 0 7 4 4 10 -3 5 -1
10 4 10 6 0 10 3 9 8 -1 4 5 21 12 37 7 17 13 33 12 38 -1 4 3 7 9 7 5 0 7 5
4 10 -3 6 -1 10 4 10 6 0 11 4 11 9 0 5 5 22 12 38 6 15 11 31 10 36 -1 4 3 7
9 7 5 0 8 4 5 9 -3 5 1 14 9 21 7 6 11 19 8 27 -4 11 -2 14 5 9 8 -5 10 -2 6
8 -3 9 -1 16 5 16 6 0 11 10 11 22 0 12 8 30 18 41 9 11 11 17 3 12 -9 -5 -7
1 4 19 10 14 14 26 9 26 -4 0 1 7 12 16 10 8 12 12 4 8 -12 -7 -13 -5 -3 8 7
8 10 18 6 21 -3 4 -1 7 5 7 7 0 11 3 10 8 -1 4 4 23 11 42 8 19 13 41 12 49
-2 8 2 10 10 5 9 -5 10 -2 5 11 -4 10 -2 21 3 24 5 4 12 18 14 31 3 14 11 39
18 55 7 17 12 40 12 53 0 12 4 22 9 22 6 0 8 7 4 15 -3 8 -1 15 5 15 6 0 9 7
5 15 -3 8 -1 15 4 15 5 0 7 7 4 15 -4 9 0 15 7 15 11 0 11 3 -1 10 -11 7 -11
10 -2 10 7 0 10 4 7 10 -3 5 -1 10 5 10 6 0 9 4 5 10 -3 5 1 25 9 45 11 25 12
33 3 28 -7 -4 -4 6 7 21 10 16 12 25 5 21 -7 -5 -6 1 3 14 9 13 14 34 12 47
-2 13 0 24 6 24 6 0 9 4 5 9 -3 5 -1 12 4 15 5 3 7 15 4 27 -4 12 0 25 8 30
12 7 12 9 0 9 -10 0 -11 3 -2 13 6 8 8 17 4 20 -3 4 -1 7 7 7 10 0 10 3 0 15
-9 11 -10 15 -1 15 8 0 10 8 6 20 -4 12 -2 20 5 20 6 0 9 4 5 9 -3 5 -1 12 4
15 5 3 7 15 4 26 -3 11 -1 26 5 33 7 8 7 18 2 27 -5 8 -5 22 1 32 6 10 7 23 4
28 -3 6 -2 10 2 10 5 0 9 18 8 40 -1 22 2 40 5 40 3 0 6 27 5 60 0 33 4 60 8
60 5 0 6 4 3 9 -4 5 0 12 6 14 10 4 10 6 0 6 -10 1 -10 6 -2 21 6 11 7 20 2
20 -10 0 -8 26 2 52 4 9 5 22 1 28 -3 5 -1 10 4 10 6 0 11 5 11 11 0 5 -4 7
-10 4 -5 -3 -7 0 -4 8 8 22 10 626 1 620 -4 -2 -7 1 -7 6 0 6 4 11 9 11 10 0
2 50 -12 68 -6 8 -6 12 3 12 10 0 10 3 1 14 -9 11 -9 15 1 19 10 4 10 6 -1 6
-11 1 -11 4 0 18 11 13 11 17 2 20 -8 3 -13 23 -13 52 0 26 -5 52 -12 59 -9 9
-9 12 0 12 9 0 10 5 2 19 -7 13 -7 22 0 26 6 4 4 12 -5 21 -8 9 -15 21 -15 27
0 7 5 6 11 -3 8 -11 9 -9 3 10 -3 14 -12 31 -18 39 -9 12 -8 13 4 6 13 -8 13
-7 1 8 -10 13 -10 17 -1 17 10 0 10 3 0 15 -7 8 -9 15 -4 15 4 0 3 5 -4 12
-14 14 -16 32 -3 24 5 -4 7 3 4 14 -3 11 -8 18 -12 16 -3 -2 -7 16 -8 40 -1
25 -6 51 -12 58 -7 9 -7 16 1 24 9 9 9 12 -1 12 -7 0 -11 9 -10 23 2 12 1 27
-3 32 -3 6 -9 28 -12 50 -4 22 -11 42 -17 43 -6 3 -6 9 2 18 7 8 7 14 1 14 -5
0 -13 7 -16 16 -4 10 -2 13 7 8 8 -5 7 -2 -2 9 -8 10 -11 20 -7 24 3 3 -1 15
-11 25 -11 13 -12 18 -3 18 9 0 10 3 1 13 -6 8 -8 17 -4 20 3 4 2 7 -3 7 -5 0
-11 12 -12 27 -1 15 -7 30 -12 33 -6 4 -8 14 -5 22 4 9 1 19 -4 23 -6 3 -9 11
-5 16 3 5 0 16 -6 24 -7 8 -9 15 -5 15 4 0 2 6 -4 14 -6 8 -11 18 -10 22 2 14
-13 54 -20 54 -4 0 -7 8 -8 18 -3 35 -10 54 -24 63 -12 7 -12 9 1 9 13 0 13 1
0 10 -8 5 -10 10 -5 10 6 0 3 5 -5 10 -13 9 -13 10 0 10 10 0 11 3 4 8 -19 12
-44 72 -31 72 7 0 4 7 -5 14 -10 7 -15 16 -11 19 3 4 1 7 -6 7 -8 0 -11 7 -7
15 3 8 1 15 -5 15 -6 0 -9 7 -5 15 3 8 1 15 -5 15 -6 0 -7 5 -4 10 3 6 3 10
-2 10 -8 0 -33 62 -35 88 -1 6 -5 12 -9 12 -7 0 -22 39 -20 53 1 4 -4 7 -10 7
-5 0 -7 5 -4 10 3 6 1 10 -4 10 -6 0 -11 9 -11 20 0 11 -4 20 -10 20 -5 0 -10
7 -10 15 0 8 -9 30 -19 49 -11 19 -17 37 -14 40 4 3 1 6 -6 6 -7 0 -9 5 -6 10
3 6 1 10 -4 10 -6 0 -11 7 -11 15 0 8 -4 15 -10 15 -5 0 -10 7 -10 16 0 8 -7
22 -16 31 -8 9 -13 21 -10 28 3 8 -2 16 -11 19 -9 4 -13 9 -10 12 3 4 -3 15
-14 27 -10 11 -19 31 -19 44 0 14 -6 23 -15 23 -8 0 -16 5 -16 10 -1 6 -2 13
-3 18 0 4 -11 21 -24 39 -12 17 -22 36 -22 42 0 6 -5 11 -11 11 -5 0 -8 4 -5
9 4 5 3 11 -1 13 -12 5 -63 83 -63 96 0 6 -6 15 -13 19 -7 4 -26 29 -42 55
-17 27 -33 48 -37 48 -5 0 -8 6 -8 13 0 7 -9 23 -20 35 -11 12 -20 26 -20 32
0 6 -4 8 -10 5 -5 -3 -10 0 -10 8 0 8 -14 28 -30 46 -17 17 -28 31 -25 31 5 0
-25 37 -52 65 -7 7 -9 15 -6 19 4 3 -1 6 -11 6 -9 0 -15 4 -12 9 3 5 -1 11 -9
15 -8 3 -15 12 -15 21 0 8 -7 15 -15 15 -8 0 -15 7 -15 15 0 8 -5 15 -11 15
-5 0 -7 5 -3 12 5 8 2 9 -10 5 -9 -4 -15 -3 -12 2 3 4 -3 16 -14 26 -11 10
-20 24 -20 32 0 7 -7 13 -16 13 -8 0 -12 5 -9 10 3 6 -1 10 -10 10 -9 0 -14 4
-11 9 3 5 -1 11 -9 15 -8 3 -15 12 -15 21 0 8 -5 15 -11 15 -12 0 -69 60 -69
73 0 4 -4 7 -9 7 -12 0 -86 73 -83 82 1 4 -6 9 -16 12 -9 3 -26 19 -37 36 -11
16 -23 30 -27 30 -4 0 -18 10 -31 23 -31 29 -115 104 -156 140 -17 15 -36 27
-41 27 -6 0 -10 7 -10 15 0 8 -6 15 -14 15 -7 0 -31 16 -52 35 -60 53 -64 56
-64 50 0 -3 -12 6 -27 20 -61 56 -66 61 -58 45 8 -13 6 -13 -8 -1 -9 7 -14 18
-10 24 3 5 2 7 -4 4 -5 -3 -25 7 -44 22 -19 16 -52 38 -74 50 -22 11 -35 21
-30 21 10 0 -17 18 -65 42 -14 7 -29 18 -33 25 -5 8 -12 11 -18 8 -5 -4 -9 -1
-9 5 0 6 -5 8 -10 5 -6 -3 -13 1 -16 9 -3 9 -10 13 -15 10 -5 -3 -9 2 -9 10 0
9 -9 16 -20 16 -11 0 -20 5 -20 11 0 5 -4 7 -10 4 -5 -3 -10 -1 -10 5 0 6 -4
8 -10 5 -5 -3 -10 -1 -10 5 0 6 -4 8 -10 5 -5 -3 -10 -2 -10 3 0 5 -14 15 -31
22 -17 7 -46 24 -65 36 -19 13 -34 21 -34 17 0 -3 -9 2 -19 11 -11 10 -25 15
-32 10 -8 -4 -10 -3 -5 4 4 7 -3 14 -19 18 -14 3 -25 10 -25 16 0 5 -4 7 -9 4
-5 -3 -14 1 -21 9 -7 8 -20 15 -29 15 -9 0 -25 7 -35 15 -10 8 -23 12 -27 9
-5 -3 -9 0 -9 6 0 6 -4 8 -10 5 -5 -3 -10 -1 -10 5 0 6 -4 8 -10 5 -5 -3 -10
-1 -10 5 0 6 -4 8 -10 5 -5 -3 -10 -1 -10 4 0 6 -3 10 -7 10 -21 -3 -33 2 -27
13 4 7 3 8 -4 4 -6 -4 -29 2 -51 14 -22 11 -47 20 -56 20 -8 0 -15 5 -15 11 0
5 -4 7 -10 4 -5 -3 -10 -1 -10 5 0 6 -4 9 -9 5 -5 -3 -12 -1 -16 5 -4 6 -10 8
-15 5 -4 -2 -19 5 -34 16 -14 11 -26 16 -26 11 0 -5 -16 -2 -35 6 -19 9 -35
21 -35 27 0 5 -5 3 -10 -5 -7 -11 -10 -11 -10 -2 0 7 -4 10 -10 7 -5 -3 -10 0
-10 7 0 9 -3 9 -10 -2 -8 -12 -10 -12 -11 5 0 11 -3 15 -5 8 -4 -8 -12 -8 -32
2 -64 33 -92 43 -92 33 0 -7 -5 -7 -12 -1 -7 5 -38 17 -68 27 -30 11 -59 22
-65 26 -5 3 -20 5 -32 4 -13 0 -23 3 -23 9 0 6 -3 7 -7 4 -3 -4 -12 -2 -20 4
-10 9 -13 8 -13 -1 0 -9 -5 -8 -18 3 -10 10 -22 14 -25 11 -4 -4 -14 -1 -24 7
-11 9 -14 10 -9 2 5 -9 2 -11 -8 -7 -9 3 -16 11 -16 17 0 8 -3 8 -11 0 -9 -9
-15 -8 -26 2 -7 8 -20 12 -27 9 -8 -3 -30 2 -50 10 -25 10 -34 11 -29 3 5 -9
3 -9 -9 0 -8 7 -18 10 -21 6 -4 -3 -7 -1 -7 7 0 10 -3 10 -15 0 -12 -10 -15
-10 -15 0 0 8 -3 10 -7 7 -3 -4 -12 -2 -20 4 -10 9 -13 8 -13 -2 0 -11 -2 -11
-10 1 -5 8 -10 11 -10 7 0 -4 -10 -3 -21 4 -16 8 -20 8 -14 -1 6 -9 3 -9 -13
-1 -11 6 -34 11 -51 11 -16 0 -33 5 -36 10 -5 7 -11 8 -19 1 -7 -6 -17 -6 -26
-1 -8 5 -18 6 -22 4 -4 -3 -8 1 -8 8 0 9 -3 9 -10 -2 -7 -11 -10 -11 -10 -2 0
7 -5 10 -10 7 -6 -4 -18 -1 -27 7 -12 9 -15 9 -9 1 4 -7 2 -13 -3 -13 -6 0
-11 4 -11 9 0 5 -8 7 -19 4 -10 -3 -21 0 -25 5 -3 6 -20 7 -41 2 -21 -5 -35
-4 -35 2 0 5 -4 7 -9 4 -5 -4 -11 0 -14 6 -3 10 -7 10 -19 0 -13 -10 -17 -10
-21 0 -4 10 -6 10 -6 -1 -1 -11 -4 -11 -16 -1 -8 7 -15 8 -15 3 0 -5 -7 -10
-15 -10 -8 0 -15 4 -15 9 0 5 -4 7 -9 4 -5 -4 -12 0 -14 6 -4 10 -6 10 -6 1
-1 -7 -6 -13 -12 -13 -5 0 -8 3 -6 8 3 4 -15 7 -39 7 -24 0 -44 -3 -44 -7 0
-5 -5 -8 -11 -8 -5 0 -8 3 -6 8 6 9 -516 10 -541 1z m-2841 -8696 c13 -16 12
-17 -3 -4 -10 7 -18 15 -18 17 0 8 8 3 21 -13z"/>
</g>
</svg>
